<?xml version="1.0" encoding="UTF-8"?>
<svg id="_레이어_1" data-name="레이어 1" xmlns="https://www.w3.org/2000/svg" viewBox="0 0 1064.33 808.77">
  <defs>
    <style>
      .cls-1 {
        fill: #fff;
      }

      .cls-2 {
        fill: #2c2c2c;
        font-family: TheJamsil6ExtraBold, 'The Jamsil';
        font-size: 263.21px;
        letter-spacing: -.05em;
      }
    </style>
  </defs>
  <path class="cls-1" d="m363.29,21.83c50.16-6.14,222.24-24.41,335.8-1.96,10.42,2.06,21.21.67,30.73-4.04,29.98-14.82,104.05-39.14,171.49,36.47,2.52,2.83,4.67,5.97,6.45,9.32,27.55,51.77,255.86,495.83,106,720.69-3.53,5.3-8.07,9.88-13.41,13.34-29.06,18.87-121.58,44.68-255.84-246.91-6.77-14.69-20.4-25.05-36.38-27.59-62.12-9.88-223.41-30.1-347.62,2-15.46,3.99-27.81,15.49-33.28,30.49C198.1,908.15-209.05,1007.41,134.83,88.62c1.31-3.51,3.03-6.86,5.12-9.97,15.55-23.17,84.54-112.35,197.13-60.94,8.2,3.75,17.26,5.22,26.21,4.12Z"/>
  <text class="cls-2" transform="translate(139.4 392.72)"><tspan x="0" y="0">TR.KR</tspan></text>
</svg>